<?xml version="1.0" encoding="utf-8"?>
<!-- Generator: Adobe Illustrator 24.2.1, SVG Export Plug-In . SVG Version: 6.00 Build 0)  -->
<svg version="1.1" id="Layer_1" xmlns="http://www.w3.org/2000/svg" xmlns:xlink="http://www.w3.org/1999/xlink" x="0px" y="0px"
	 viewBox="0 0 800 462.1" style="enable-background:new 0 0 800 462.1;" xml:space="preserve">
<style type="text/css">
	.st0{fill:url(#SVGID_1_);}
	.st1{fill:#557C63;}
	.st2{opacity:0.5;fill:#F2E3A5;}
	.st3{fill:#A8FFC9;}
	.st4{opacity:0.4;fill:#2E7B87;}
	.st5{fill:#6D9E7D;}
	.st6{fill:#7CBF94;}
	.st7{fill:#B28869;}
	.st8{fill:url(#SVGID_2_);}
	.st9{fill:#E59673;}
	.st10{opacity:0.3;fill:#673B00;}
	.st11{opacity:0.3;fill:#431F00;}
	.st12{opacity:0.5;fill:#431F00;}
	.st13{fill:#A8693F;}
	.st14{opacity:0.8;}
	.st15{fill:#F2E3A5;}
	.st16{opacity:0.2;fill:#431F00;}
	.st17{fill:#96744B;}
	.st18{fill:url(#SVGID_3_);}
	.st19{fill:#673B00;}
	.st20{fill:url(#SVGID_4_);}
	.st21{fill:#7EB7C4;}
	.st22{fill:#597B84;}
	.st23{fill:#FFB38A;}
	.st24{fill:#2D464C;}
	.st25{fill:#EAD67F;}
	.st26{fill:#423321;}
	.st27{fill:#4C3F32;}
	.st28{fill:#EA5D49;}
	.st29{fill:#FFF8CB;}
	.st30{opacity:0.3;clip-path:url(#SVGID_6_);fill:#431F00;}
	.st31{opacity:0.8;fill:#F2E3A5;}
	.st32{fill:#77A3BC;}
	.st33{opacity:0.7;fill:#D67641;}
	.st34{opacity:0.7;fill:#FFF5E6;}
	.st35{opacity:0.6;fill:#D67641;}
	.st36{fill:#FF552B;}
	.st37{opacity:0.3;fill:#2B1300;}
	.st38{fill:#FFC956;}
	.st39{opacity:0.5;fill:#96744B;}
	.st40{opacity:0.4;fill:#F2E3A5;}
	.st41{fill:#020202;}
</style>
<linearGradient id="SVGID_1_" gradientUnits="userSpaceOnUse" x1="351.5502" y1="267.3809" x2="577.7339" y2="-97.6565">
	<stop  offset="0" style="stop-color:#FFFFC4"/>
	<stop  offset="1" style="stop-color:#15A2FF"/>
</linearGradient>
<polygon class="st0" points="201.2,340.2 196.9,13.9 618.1,108.2 619.8,337.5 "/>
<polygon class="st1" points="575.7,264.8 576,211.4 577.9,210.6 577.6,265.2 "/>
<polygon class="st1" points="585.2,262.3 585.5,198.1 587.3,197.1 587.1,262.9 "/>
<path class="st2" d="M308.6,152.6c0-2.9-16.2-5.3-36.1-5.3c-0.9,0-1.7,0-2.6,0c0,0,0,0,0,0c0-2.9-10-5.3-22.3-5.3
	s-22.3,2.4-22.3,5.3c0,2,4.6,3.7,11.5,4.7c-0.2,0.2-0.3,0.4-0.3,0.7c0,0.1,0,0.1,0,0.2c-14.9,0.7-25.8,2.7-25.8,5.1
	c0,2.9,16.2,5.3,36.1,5.3s36.1-2.4,36.1-5.3c0-0.1,0-0.1,0-0.2C297.7,157.1,308.6,155,308.6,152.6z"/>
<path class="st2" d="M359.3,117.1c0-2.5,30.5-4.4,68.1-4.4c1.6,0,3.3,0,4.9,0c0,0,0,0,0,0c0-2.5,18.9-4.4,42.1-4.4
	c23.3,0,42.1,2,42.1,4.4c0,3,27.6,6.9,27.6,8.9c0,2.5-30.5,4.4-68.1,4.4c-37.6,0-68.1-2-68.1-4.4c0-0.1,0-0.1,0.1-0.2
	C379.9,120.8,359.3,119.1,359.3,117.1z"/>
<g>
	<path class="st2" d="M596.4,171.3C596.4,171.3,596.4,171.3,596.4,171.3c-0.7,0-1.3,0-2,0c-15.4,0-27.9,2-27.9,4.4
		c0,2,8.4,3.7,19.9,4.3c0,0.1,0,0.1,0,0.2c0,2.5,12.5,4.4,27.9,4.4c1.5,0,2.9,0,4.4-0.1l-0.1-17.5c-1.6-0.1-3.2-0.2-4.9-0.2
		C604.1,166.8,596.4,168.8,596.4,171.3z"/>
</g>
<polygon class="st1" points="442.4,341.2 459.1,153 606.9,255.2 592.2,341.7 "/>
<polygon class="st3" points="459.1,152.9 246.4,249.8 258.5,344.7 444.7,351.2 "/>
<polygon class="st4" points="569.1,336.2 573.4,298.4 514.9,274.4 509.3,337.1 "/>
<polygon class="st4" points="573.4,298.4 551.5,335.8 507.6,344.7 514.9,274.4 "/>
<polygon class="st5" points="514.9,274.4 575.1,299 574.8,295.2 515.2,269.1 "/>
<polygon class="st6" points="516.4,278 514.9,290.1 569.4,309.7 570.2,299.3 "/>
<polygon class="st4" points="570.5,303.2 516.1,283.3 516.4,278 570.2,299.3 "/>
<polygon class="st5" points="515.1,264.6 517.1,228 578.8,265.3 576.4,291.5 "/>
<polygon class="st4" points="576.4,267.7 574.8,288 518.1,261.8 521.8,236 "/>
<polygon class="st4" points="254.5,258.1 256.8,270.6 268.8,264 268.2,253.4 "/>
<polygon class="st4" points="271.1,251 273.4,263.5 285.4,256.9 284.8,246.3 "/>
<polygon class="st4" points="435,193.5 437.3,206 449.3,199.4 448.7,188.8 "/>
<path class="st7" d="M528.2,336.9l0-0.4l-6.6-2.6l-0.4-18.3l-6.2-1.9L515,300l-3.9-0.5l-0.8-22.6l-8.9-6.8l-6.5,1.3l-0.5,6.5l-3.9,0
	l-1.1-7.5l-9.4-2.7l-1.3-12.2l-5.9-1.9l-5.7,1.5l0.3,11.3l-7.8,1.3l-1.6-15.1l-8.9-5.5l-0.9-20.5l-15.6-3.4l-18.2,20.8l3,95.3
	C455.6,338.1,494,337.3,528.2,336.9z"/>
<linearGradient id="SVGID_2_" gradientUnits="userSpaceOnUse" x1="317.2543" y1="406.9771" x2="570.9192" y2="217.8033">
	<stop  offset="0" style="stop-color:#F9F200"/>
	<stop  offset="1" style="stop-color:#FF9938"/>
</linearGradient>
<polygon class="st8" points="166.8,340.2 643,333.1 497.7,451.3 "/>
<path class="st9" d="M534.9,78.7c1-4,0-7.8-2.3-8.3c-2.2-0.6-4.8,2.2-5.8,6.3c-1,4,0,7.8,2.3,8.3C531.4,85.6,534,82.8,534.9,78.7z"
	/>
<path class="st10" d="M533.7,78.7c0.8-3.4,0-6.6-1.9-7.1c-1.9-0.5-4.1,1.9-4.9,5.3c-0.8,3.4,0,6.6,1.9,7
	C530.7,84.4,532.9,82.1,533.7,78.7z"/>
<path class="st9" d="M494.7,77.4c-1.2-4-3.2-5.6-5.4-4.9c-2.2,0.7-3.7,3.6-2.5,7.5c1.2,4,4,6.6,6.2,5.8
	C495.1,85.1,495.9,81.3,494.7,77.4z"/>
<path class="st10" d="M495.1,77.8c-1-3.2-2.6-4.5-4.4-4c-1.8,0.6-3,2.9-2,6.1c1,3.2,3.2,5.3,5,4.7C495.5,84.1,496.1,81,495.1,77.8z"
	/>
<path class="st11" d="M592.3,355.7c-73.9-24.4-353.8-22.6-391.2-9.4C233,358.6,565,368.7,592.3,355.7z"/>
<path class="st12" d="M441.5,345.9c-29.5-4-187.1-7.6-206.6-0.4C251.5,352.1,427.1,352.9,441.5,345.9z"/>
<polygon class="st13" points="222.4,288.7 277.7,273.5 303.7,301.2 295.9,346 233.6,346 "/>
<g class="st14">
	<polygon class="st15" points="222.4,288.7 233.6,346 277,343.3 277,273.7 	"/>
	<polygon class="st16" points="236.3,284.9 225.3,307.1 221.5,288.3 	"/>
	<polygon class="st11" points="264.6,277 276.4,290.9 288.5,280.1 277.7,273.5 	"/>
	<polygon class="st11" points="264.9,344 276.7,323.9 287.4,344.3 276.4,346 	"/>
</g>
<polygon class="st17" points="346.9,175 351.1,91.6 378.6,79.1 424.2,97.3 420.2,206.8 "/>
<g>
	<polygon class="st11" points="420.9,187 424.2,97.3 379,79.3 376.2,178.8 	"/>
</g>
<polygon class="st17" points="294.6,152.3 317.9,138.9 337,149.7 339.5,193.5 299.4,198.1 "/>
<polygon class="st11" points="297.6,153.3 307.8,171.5 301.8,196.8 309.6,175 317.9,194.5 310.6,171 313.3,144.7 309.1,168.1 "/>
<g>
	<polygon class="st11" points="339.2,189.2 337,149.7 318.3,139 317.3,189.8 	"/>
</g>
<linearGradient id="SVGID_3_" gradientUnits="userSpaceOnUse" x1="286.7669" y1="200.9914" x2="446.4549" y2="329.4119">
	<stop  offset="0" style="stop-color:#EAD67F"/>
	<stop  offset="0.9946" style="stop-color:#EAB57D"/>
</linearGradient>
<polygon class="st18" points="283.6,347.4 431.4,346.3 444,178.4 363.8,158.7 277,173.9 "/>
<g>
	<polygon class="st15" points="279.4,175.5 283.6,347.4 357.7,344.9 363.8,158.3 	"/>
</g>
<polygon class="st19" points="490.2,333.8 489.9,347.2 496.2,347.2 494.3,332.7 "/>
<polygon class="st19" points="535,334.1 534.7,347.4 538.6,347.2 538.9,332.9 "/>
<linearGradient id="SVGID_4_" gradientUnits="userSpaceOnUse" x1="599.8765" y1="212.1923" x2="452.7939" y2="238.1926">
	<stop  offset="0" style="stop-color:#597B84"/>
	<stop  offset="1" style="stop-color:#599ABF"/>
</linearGradient>
<path class="st20" d="M548.1,213.1L548.1,213.1c-0.6-9-1.1-31.7-5.8-53c-0.5-7.8-0.4-20.8,2.6-39.8c-37.2-19.2-61.7,0.6-61.7,0.6
	l6.7,45.6c-3,26.8-3.8,54-3.6,53.9l2.4,119.2l8.1-1.4l14.2-115.9c6.3-0.4,1.8,0.1,8.2-0.6L534.1,339h7l7-125.6c0,0,0,0,0,0
	c0,0,0-0.1,0-0.1L548.1,213.1z"/>
<g>
	<path class="st21" d="M542.1,156.3c-0.2-8,0.2-19.8,2.8-35.9c-2.4-1.2-4.7-2.3-6.9-3.2l-0.6,34.6L542.1,156.3z"/>
</g>
<g>
	<path class="st11" d="M537.1,339h4l7-125.6c0,0,0,0,0,0c0,0,0-0.1,0-0.1l0-0.1h0c-0.5-9-1.1-31.7-5.8-53
		c-0.9-6.2,0.9-25.8,0.9-25.8c0,0-2-0.5-4,1.8c-0.4,14.2-0.6,39.1-0.8,68c0,1.7-6.6-2.3-6.6-0.6c0,2.5,6.6,10.8,6.6,13.4
		C538,257.4,537.8,303.4,537.1,339z"/>
</g>
<g>
	<path class="st21" d="M529.9,127.9l3.3-12.4c-16.1-5.7-27.8-3.8-36.7-1l3,14.1L529.9,127.9z"/>
	<path class="st22" d="M521.4,116.8c0-2.8-4-5.1-8.9-5.1c-4.9,0-8.9,2.3-8.9,5.1c1,2.6,4.8,5.1,9.8,5.1
		C518.2,121.9,520,119.8,521.4,116.8z"/>
	<path class="st11" d="M514.8,119.4l30,1c0,0-21.5-14-46.7-6.5C508.3,111.7,512.7,118.5,514.8,119.4z"/>
</g>
<path class="st23" d="M505.9,116c0,0-4.7-23.5,4.4-25.3c6.4,1.2,5.7-4.4,9.2,25.7C513.5,123,505.9,116,505.9,116z"/>
<polygon class="st10" points="505.2,111.6 514.8,119.4 517.8,118.3 519.5,116.7 517.9,105.4 504.1,106.2 "/>
<polygon class="st24" points="533.9,158.5 540.3,151.6 536.4,150.6 "/>
<path class="st23" d="M532.3,142c0,0,6.2-1.8,6.1,6.9c-0.1,8.5-3.3,6.4-6.4,3C529,148.5,529.4,143.4,532.3,142z"/>
<polygon class="st25" points="495.9,135 535.7,132.9 528.8,179.3 500.5,176.2 "/>
<g>
	<polygon class="st10" points="498.6,140.3 500.1,176.2 528.8,179.3 535.7,132.9 533.9,136.3 	"/>
</g>
<path class="st9" d="M529.5,80.3c0.3-1.4,0.4-2.9,0.4-4.5c0.4-22.1-9.4-28-19.2-28c-9.8,0-17.9,13.2-17.9,26.2
	c0,2.3-0.3,1.9,0.2,4.1c-2.1,8-5.4,31.7,15.7,31.7C524.3,108.1,528.7,103.8,529.5,80.3z"/>
<path class="st23" d="M524.8,76.4c0-15.9-7.1-28.7-15.9-28.7c-8.8,0-17.2,9.4-14.4,29.7c-4.2,30.7,6.2,30.3,15,30.3
	C527.6,103.6,524.8,92.3,524.8,76.4z"/>
<path class="st19" d="M492.4,63.3c-2.3,1.7-3.4,4.7-2.8,7.6l2.1,9.8l1.6-0.5l1.7-18.9L492.4,63.3z"/>
<path class="st19" d="M529.4,63.3c1.6,1.5,2.4,3.6,2.3,5.8L531,80.6l-1.7-0.3l-3.5-20.4L529.4,63.3z"/>
<polygon class="st21" points="530.1,65.1 534.3,43.7 510.3,35.6 491.1,43.4 493.4,63.2 511.4,59.9 "/>
<g>
	<path class="st11" d="M530.6,62.7l3.7-19l-24-8.1l-0.8,20.6C509.6,56.2,524.1,60.7,530.6,62.7z"/>
</g>
<path class="st21" d="M493.4,63.2l-5.7-4.2c-0.7-0.5-1.1-1.5-1-2.4c0.1-0.9,0.7-1.7,1.5-2.1l10.1-4.2c3-1.2,6.3-1.3,9.3-0.2
	l22.6,8.1c1,0.3,1.7,1.1,2.1,2.1c0.4,1,0.3,2.1-0.2,3l-1.8,3.2l-17.5-4.6c-3.4-0.9-7-1-10.5-0.4L493.4,63.2z"/>
<path class="st22" d="M493.4,64.2l-5.7-4.2c-0.7-0.5-1.1-1.5-1-2.4c0.1-0.9,0.7-1.7,1.5-2.1l10.1-4.2c3-1.2,6.3-1.3,9.3-0.2
	l22.6,8.1c1,0.3,1.7,1.1,2.1,2.1c0.4,1,0.3,2.1-0.2,3l-1.8,3.2l-17.5-4.6c-3.4-0.9-7-1-10.5-0.4L493.4,64.2z"/>
<path class="st26" d="M496.1,346.3c-7-1.5-8.8-2.3-30.9,8.8C465.4,358.7,496.2,349.9,496.1,346.3z"/>
<path class="st26" d="M537.2,344.7c-3.9-1.9-6.3,10.7-4.6,16.3C543.7,357.7,540.7,346.4,537.2,344.7z"/>
<path class="st27" d="M504.6,79.9c0-1.7-0.5-2.3-1.2-2.3c-0.7,0-1.4,0.6-1.4,2.3c0,1.7,0.6,3,1.3,3C504,82.9,504.6,81.5,504.6,79.9z
	"/>
<path class="st27" d="M522,79.1c0-1.7-0.6-2.3-1.3-2.3c-0.7,0-1.3,0.7-1.3,2.3c0,1.7,0.6,3,1.3,3C521.4,82.1,522,80.8,522,79.1z"/>
<path class="st28" d="M511.5,78.9c-2-0.1-1.5,6.9-1.6,9.6c-0.1,2.7,4.1,3.3,6,2.9C521,89.4,513.6,85.6,511.5,78.9z"/>
<path class="st19" d="M517,70.4c0,0,7.2,1.5,8.4,1.1c1.2-0.4,1.2,3.4-0.6,3.5C522.9,75.2,517.3,75.8,517,70.4z"/>
<path class="st19" d="M506.1,70c0,0-6.8,2.5-8,2.2c-1.2-0.3-0.8,3.5,1.1,3.4C501,75.5,506.6,75.4,506.1,70z"/>
<path class="st11" d="M379.9,193.6c0,0,6.4,49.8,9.7,53.8l23.6,3.4c0,0-7.7-25.6-9.9-48.9C397.5,200,379.9,193.6,379.9,193.6z"/>
<path class="st29" d="M379.5,190.5c0,0-0.9,46,6.2,54l21.2,3.2c0,0-6-36-3.5-46.6C397.7,199.3,379.5,190.5,379.5,190.5z"/>
<g>
	<path class="st21" d="M491.6,116.3c-5.4,2.3-8.4,4.7-8.4,4.7l6.6,45.1l3.1-2.3L491.6,116.3z"/>
</g>
<polygon class="st10" points="511.4,101.1 516.8,100.5 514.3,103.6 "/>
<g>
	<defs>
		<path id="SVGID_5_" d="M548.1,213.1L548.1,213.1c-0.6-9-1.1-31.7-5.8-53c-0.5-7.8-0.4-20.8,2.6-39.8c-37.2-19.2-61.7,0.6-61.7,0.6
			l6.7,45.6c-3,26.8-3.8,54-3.6,53.9l2.4,119.2l8.1-1.4l14.2-115.9c6.3-0.4,1.8,0.1,8.2-0.6L534.1,339h7l7-125.6c0,0,0,0,0,0
			c0,0,0-0.1,0-0.1L548.1,213.1z"/>
	</defs>
	<clipPath id="SVGID_6_">
		<use xlink:href="#SVGID_5_"  style="overflow:visible;"/>
	</clipPath>
	<polygon class="st30" points="502.8,338.9 492.9,341.8 502.8,217.3 516.6,225.2 	"/>
</g>
<path class="st23" d="M510.5,168c-0.1-0.4-2.9,0.4-6.1,1.8c-3.2,1.3-5.7,2.7-5.6,3.1c0.1,0.4,2.9-0.4,6.1-1.8
	C508.1,169.8,510.6,168.4,510.5,168z"/>
<path class="st23" d="M511,171c-0.1-0.4-2.8,0.1-6,1c-3.2,1-5.7,2.1-5.6,2.4c0.1,0.4,2.8-0.1,6-1C508.6,172.5,511.1,171.4,511,171z"
	/>
<path class="st23" d="M511.1,175c0-0.3-3-0.1-6.5,0.4c-3.5,0.6-6.4,1.3-6.3,1.6c0,0.3,3,0.1,6.5-0.4
	C508.3,176,511.1,175.3,511.1,175z"/>
<path class="st23" d="M502.2,173c0.8,2.2,1,4.6-5,4.3c-5.9-0.4-4.3-2.7-1.8-4.8C497.9,170.4,501.4,170.8,502.2,173z"/>
<path class="st23" d="M498.3,171.4c0,0,1.5-2.1,1.6-2.9c0.1-0.8,0.1-3.1-0.3-4.3c-0.4-1,0.8-1,1.1-0.2c0.3,0.8,0.7,2.9,0.5,4.4
	c-0.1,0.9-0.2,2.1-0.8,3.3C500,172.7,498.3,171.4,498.3,171.4z"/>
<path class="st21" d="M483.2,120.9c-1.5,4-36,69.3,11.6,58.9l-1.4-8c0,0-33.5,9-2.1-42L483.2,120.9z"/>
<path class="st21" d="M533.9,158.3c0,0,54.7,50,11-37.9l-5.5,7.1c0,0,33,57.7,0.8,24.1L533.9,158.3z"/>
<path class="st9" d="M503.1,87.8c0-0.9-2.1-1.6-4.7-1.6c-2.6,0-4.7,0.7-4.7,1.6c0,0.9,2.1,1.6,4.7,1.6
	C501,89.4,503.1,88.7,503.1,87.8z"/>
<path class="st9" d="M528.1,85.8c-0.2-0.8-2.3-1.1-4.9-0.6c-2.5,0.5-4.5,1.6-4.3,2.4c0.2,0.8,2.3,1.1,4.9,0.6
	C526.4,87.7,528.3,86.6,528.1,85.8z"/>
<polygon class="st11" points="494.8,201.2 489.1,215.7 487.4,210.6 "/>
<polygon class="st19" points="486.9,194.9 486.5,190.2 548.4,189.8 548.3,195.9 "/>
<polygon class="st31" points="486.5,190.2 486.9,194.9 533.8,195.6 534,189.9 "/>
<polygon class="st11" points="486.9,193.6 487.5,195 487.3,196.7 547.3,199.9 547.1,195.9 548.2,195.8 548.4,193.3 "/>
<polygon class="st25" points="507,188.8 507.4,196 518,196.6 518,188.5 "/>
<polygon class="st32" points="531,203.4 543.1,219 541.7,224.1 530.1,206.8 "/>
<polygon class="st32" points="487.1,215 495.3,200.2 499.4,202.5 488.9,219.2 "/>
<path class="st11" d="M533.9,158.3c0,0,54.7,50,11-37.9c-1.2,5.8,29.9,69.8-4.7,31.3L533.9,158.3z"/>
<polygon class="st25" points="322.3,176.3 325.9,188.3 340.2,185.7 343.5,172.4 "/>
<polygon class="st29" points="324.2,177.1 327.1,186.8 338.8,184.7 341.5,173.8 "/>
<g>
	<path class="st33" d="M331,303.5l-8.2,21l8,16.1l16.9-21.7L331,303.5z M324.8,323.7l6.4-15.8l11.3,11.7l-11.4,15.8L324.8,323.7z"/>
	<polygon class="st33" points="330.4,311.2 331.1,322.2 332.6,322 333.3,313.5 	"/>
	<polygon class="st33" points="330.3,326.2 330.7,330.2 332.7,329 333.1,325.6 	"/>
</g>
<path class="st34" d="M514,87.5c-0.4-1.4-1.3-2.3-2.1-2.1c-0.8,0.2-1.1,1.5-0.7,2.9c0.4,1.4,1.3,2.3,2.1,2.1
	C514,90.2,514.3,88.9,514,87.5z"/>
<polygon class="st25" points="359.8,167.4 318.2,246.8 281.6,188.3 315.1,252.7 291.8,339.8 318.3,256.2 348.4,305.4 320.5,251.7 
	359.8,172 "/>
<polygon class="st16" points="230.8,332.1 247,346 233.6,346 "/>
<polygon class="st11" points="382.5,199.6 382.8,203.6 400.3,209 399.8,205.6 "/>
<polygon class="st11" points="383,209.3 383.6,213.3 400.3,216.1 399.5,213.6 "/>
<polygon class="st11" points="383.6,218.1 384.1,222.1 401.2,224.1 399.8,221 "/>
<polygon class="st11" points="394.3,232.3 394,234.9 402.5,236 402.3,232.6 "/>
<path class="st35" d="M308.5,282.6c0,0,0.7,11.9,1.8,11.9s37.7-2.7,37.7-2.7l0.7-22.4L308.5,282.6z M344.3,288.6
	c0,0-30.6,3.5-31.5,3.5c-0.9,0.1-1.3-7.6-1.3-7.6l33.1-9.6L344.3,288.6z"/>
<polygon class="st35" points="314.7,285.9 314.9,289.4 340.8,286.4 341.1,280 "/>
<path class="st11" d="M514.4,45.6c0-2.3-1.8-4.2-4-4.2c-2.2,0-4,1.9-4,4.2c0,2.3,1.8,4.2,4,4.2C512.6,49.8,514.4,47.9,514.4,45.6z"
	/>
<path class="st21" d="M515.5,45.6c0-2.3-1.8-4.2-4-4.2c-2.2,0-4,1.9-4,4.2c0,2.3,1.8,4.2,4,4.2C513.7,49.8,515.5,47.9,515.5,45.6z"
	/>
<polygon class="st11" points="352.3,96.4 361.5,123.5 349,159.3 350.5,160.4 362.6,127.1 373.5,159.3 374.8,157.9 363.6,124.4 
	376.7,86.2 375,85.3 362.6,121.1 353.1,94.8 "/>
<path class="st27" d="M519.1,94.2c-0.9,1.9-3.5,3.2-6.5,3.2c-3.2,0-5.8-1.5-6.6-3.5l-0.5,0c0.1,2.6,3.2,4.7,7.1,4.7
	c3.7,0,6.8-1.9,7.1-4.4L519.1,94.2z"/>
<polygon class="st11" points="533.9,136.3 527.2,176.7 501.5,176.2 528.8,179.3 535.7,132.9 "/>
<path class="st11" d="M493.6,64.4c-0.1,2,0,6.7,0,6.7s19.7,14.8,37.9,4.5c0-2.7,0.4-5.6-0.4-9.7c2.4-4.1,1.5-6.3-2.8-7.3
	c-4.9-1.5-16.1-6.4-23.5-8.1c-3.5-0.9-12.6,3.1-17.2,5.7C484.4,59.8,493,63,493.6,64.4z"/>
<path class="st11" d="M246.4,291.3c0,0,1.8,22.4-0.1,25.7c-1.9,3.3,17-3.2,17-3.2s-1.6-25.1-3.8-27.3
	C257.4,284.2,246.4,291.3,246.4,291.3z"/>
<path class="st25" d="M243.9,289.5c0,0-0.2,22.4-2.4,25.6c-2.1,3.1,17.2-1.6,17.2-1.6s0.6-25.1-1.3-27.6S243.9,289.5,243.9,289.5z"
	/>
<polygon class="st11" points="245.7,291.8 245.7,295.1 254.9,292.4 254.9,288.9 "/>
<polygon class="st11" points="245.9,297.8 245.9,301.1 255.1,298.4 255.1,294.9 "/>
<polygon class="st11" points="250.6,303.8 249.6,307 255.5,306.1 256.5,302.7 "/>
<polygon class="st36" points="519.4,133.9 519.9,138.2 522.8,159.4 526.4,158.5 522.5,137.9 521.7,133.8 "/>
<g>
	<polygon class="st37" points="519.9,138.2 522.8,159.4 526.4,158.5 522.5,137.9 522.5,137.9 519.9,138.1 	"/>
</g>
<polygon class="st38" points="548.2,203.1 547.6,185.4 550.7,184 553.4,186.5 553.1,204 "/>
<g>
	<polygon class="st31" points="548.3,185.5 548.9,203.2 551.7,203.7 551.2,184.2 	"/>
</g>
<polygon class="st38" points="545.9,204.2 548.2,203.1 553.4,204 556.6,206.7 557.4,212.9 544.5,211 "/>
<polygon class="st19" points="546.1,208.7 555.7,210.4 556.2,212.9 545.4,211.1 "/>
<polygon class="st31" points="545.4,211.1 546.4,206 555.9,208 555.7,210.4 547.6,209 "/>
<path class="st19" d="M552.2,189.1c0-0.8-0.5-1.4-1-1.4c-0.6,0-1,0.6-1,1.4c0,0.8,0.5,1.4,1,1.4
	C551.8,190.5,552.2,189.9,552.2,189.1z"/>
<polygon class="st11" points="359.6,342.6 359.9,335.2 362.2,334.9 361.6,342.6 "/>
<polygon class="st11" points="360.3,330.8 360.6,323.4 362.9,323.1 362.3,330.8 "/>
<polygon class="st11" points="360.5,319.2 360.8,311.8 363.1,311.5 362.5,319.2 "/>
<polygon class="st11" points="361.1,307.9 361.4,300.5 363.7,300.2 363.1,307.9 "/>
<polygon class="st11" points="361.6,296.8 361.9,289.4 364.1,289.1 363.6,296.8 "/>
<polygon class="st11" points="362,284.6 362.3,277.2 364.6,276.9 364,284.6 "/>
<polygon class="st11" points="362.9,271.5 363.1,264 365.4,263.8 364.9,271.5 "/>
<polygon class="st11" points="363.5,259.5 363.8,252 366.1,251.7 365.5,259.5 "/>
<polygon class="st11" points="363.9,246.6 364.2,239.2 366.5,238.9 365.9,246.6 "/>
<polygon class="st11" points="364.6,233.4 364.9,226 367.2,225.7 366.6,233.4 "/>
<polygon class="st11" points="365.2,221.4 365.5,214 367.8,213.7 367.2,221.4 "/>
<polygon class="st11" points="365.9,208.6 366.1,201.1 368.4,200.8 367.9,208.6 "/>
<polygon class="st11" points="366.3,196.1 366.6,188.7 368.9,188.4 368.3,196.1 "/>
<polygon class="st11" points="366.7,182.3 367,174.9 369.3,174.6 368.7,182.3 "/>
<polygon class="st11" points="367.2,169.7 367.4,162.2 369.7,161.9 369.2,169.7 "/>
<g>
	<polygon class="st11" points="410.8,324.6 421.7,327.7 417.4,321.8 	"/>
	<polygon class="st11" points="417,334.9 417.1,326.8 416.1,326.7 416.3,336.1 418.2,336.2 418.2,334.8 	"/>
	<path class="st11" d="M406.3,317.2v21.3l17.5-0.2l1.4-17.8L406.3,317.2z M422.9,337.1l-15.1,0l0-18.1l16.3,2.6L422.9,337.1z"/>
</g>
<polygon class="st11" points="365.6,310.4 372.9,294.6 371.2,304 "/>
<path class="st11" d="M365.6,310.2l-0.2,8.4C365.4,318.7,375,314.4,365.6,310.2z M366.9,316.8l-0.7-4.2
	C371.3,313.7,366.9,316.8,366.9,316.8z"/>
<polygon class="st39" points="380.2,81.9 401.9,129.5 423,99 "/>
<polygon class="st39" points="380,87.5 399.5,130.8 379.8,158.4 "/>
<polygon class="st39" points="404.6,131.3 422.7,103.4 420.4,168 "/>
<polygon class="st39" points="381.7,160 401.7,133.9 417.5,169.5 "/>
<polygon class="st40" points="229.5,310 241.6,289.5 230.4,318.3 "/>
<polygon class="st40" points="237.9,286.3 233,298.1 241.6,285.4 "/>
<g>
	<ellipse cx="414" cy="273.4" rx="0.9" ry="0.8"/>
	<ellipse cx="411.8" cy="275.3" rx="0.9" ry="0.8"/>
	<path d="M419.9,271c2,0,3.6-1.4,3.6-3.1c0-0.3-0.1-0.6-0.2-0.9l2.6-0.6l-0.3-0.9l-2.8,0.6c-0.6-0.8-1.7-1.3-3-1.3
		c-2,0-3.6,1.4-3.6,3.1C416.3,269.6,417.9,271,419.9,271z M422.5,267.9c0,1.2-1.1,2.2-2.5,2.2c-1.3,0-2.3-0.8-2.5-1.8l4.9-1
		C422.4,267.5,422.5,267.7,422.5,267.9z M419.9,265.8c0.7,0,1.4,0.3,1.8,0.7l-4.2,0.9C417.8,266.4,418.8,265.8,419.9,265.8z"/>
	<path d="M432.8,273.1l-5-4.6l-0.9,0.7l4.2,3.8l-1.3,1l-4.3-3.6l-0.9,0.8l4.2,3.6l-1.3,1.1l-4.3-3.9l-0.9,0.7l1.6,1.4
		c-1.7,0.1-3.4-0.3-4.7-1.3l-3.2-2.7l-0.9,0.8l3.2,2.8l0,0c1.4,1.1,3.2,1.7,5,1.7c0.5,0,1.1-0.1,1.6-0.2l2.6,2.3L432.8,273.1z"/>
	<path d="M408.2,275.3l7.1-5.8l-0.5-0.4c-2.5-2-6.4-2.2-9.2-0.5l-1.1,0.7l0.7,0.9l1.1-0.7c2.2-1.3,5.1-1.3,7.2,0l-6.1,5l-2.5-2.3
		l-0.9,0.7l6.4,5.7l0,0c0.4,0.3,0.4,0.9,0,1.2l-2.1,1.8l0.9,0.8l2.1-1.8c0.9-0.7,0.9-2,0-2.7L408.2,275.3z"/>
</g>
<g>
	<path class="st41" d="M378.9,271.4c-0.2,0-0.3,0-0.4,0.1c-0.1,0.1-0.2,0.2-0.2,0.3c0,0.1,0.1,0.3,0.2,0.3c0.1,0.1,0.2,0.1,0.4,0.1
		c0.2,0,0.3,0,0.4-0.1c0.1-0.1,0.2-0.2,0.2-0.3c0-0.1-0.1-0.2-0.2-0.3C379.2,271.4,379.1,271.4,378.9,271.4z"/>
	<path class="st41" d="M380.5,271.4c-0.2,0-0.3,0-0.4,0.1c-0.1,0.1-0.2,0.2-0.2,0.3c0,0.1,0.1,0.3,0.2,0.3c0.1,0.1,0.2,0.1,0.4,0.1
		c0.2,0,0.3,0,0.4-0.1c0.1-0.1,0.2-0.2,0.2-0.3c0-0.1-0.1-0.2-0.2-0.3C380.8,271.4,380.7,271.4,380.5,271.4z"/>
	<path class="st41" d="M380.7,267.5h-1v2.6h-1.4h-0.1h-0.6v-2.6h-1v3.4c0,0.2,0,0.4-0.1,0.5c-0.1,0.1-0.2,0.1-0.4,0.1
		c-0.1,0-0.2,0-0.2,0c-0.1,0-0.2,0-0.3,0l0.1,0.9c0.1,0,0.1,0,0.2,0c0.1,0,0.2,0,0.3,0c0.5,0,0.8-0.1,1.1-0.3c0.2-0.2,0.4-0.6,0.4-1
		h0.6h0.1h2.4V267.5z"/>
	<path class="st41" d="M399.9,267.1v2.3c0,0.2-0.1,0.4-0.2,0.6c-0.1,0.1-0.4,0.2-0.6,0.2c-0.3,0-0.5-0.1-0.7-0.2
		c-0.2-0.1-0.2-0.3-0.3-0.6v-1.5h-1v1.5c0,0.2,0,0.3-0.1,0.4s-0.1,0.2-0.2,0.2c-0.1,0.1-0.2,0.1-0.3,0.1c-0.1,0-0.2,0-0.3,0h-0.7
		v-2.3h-1v2.3H393h-0.1h-1.1h-0.1h-1.1h-0.1h-1.1H389h-1.1h-0.1h-1.1h-0.1h-1.1h-0.1h-1.1h-0.1h-0.8V266h-1v5h1.8h0.1h1.1h0.1h1.1
		h0.1h1.1h0.1h1.1h0.1h1.1h0.1h1.1h0.1h1.1h0.1h3.2c0.3,0,0.5,0,0.8-0.1c0.2-0.1,0.5-0.2,0.6-0.4c0.1,0.1,0.2,0.2,0.3,0.3
		c0.1,0.1,0.2,0.1,0.3,0.2c0.1,0,0.3,0.1,0.4,0.1c0.1,0,0.3,0,0.4,0c0.6,0,1.1-0.1,1.4-0.4c0.3-0.3,0.5-0.7,0.5-1.3v-2.2H399.9z"/>
</g>
<g>
	<g>
		<path d="M376,277.6c0.1,0.1,0.2,0.1,0.4,0.2c0.1,0,0.3,0.1,0.4,0.1c0.2,0,0.3,0.1,0.5,0.1c0.2,0,0.3,0,0.5,0c0.2,0,0.3,0,0.5,0
			c0.2,0,0.3-0.1,0.4-0.1c0.1-0.1,0.2-0.1,0.3-0.2c0.1-0.1,0.1-0.2,0.1-0.3c0-0.1,0-0.2-0.1-0.3c-0.1-0.1-0.1-0.1-0.2-0.2
			c-0.1-0.1-0.2-0.1-0.3-0.1c-0.1,0-0.3-0.1-0.5-0.1l-0.5-0.1c-0.5-0.1-0.9-0.3-1.2-0.5c-0.3-0.3-0.4-0.6-0.4-0.9
			c0-0.2,0.1-0.4,0.2-0.6c0.1-0.2,0.2-0.3,0.4-0.4c0.2-0.1,0.4-0.2,0.7-0.3c0.3-0.1,0.5-0.1,0.9-0.1c0.2,0,0.4,0,0.6,0
			c0.2,0,0.4,0.1,0.6,0.1c0.2,0,0.3,0.1,0.5,0.1c0.2,0.1,0.3,0.1,0.4,0.2l-0.4,0.8c-0.2-0.1-0.5-0.2-0.8-0.3
			c-0.3-0.1-0.6-0.1-0.9-0.1c-0.1,0-0.3,0-0.4,0c-0.1,0-0.2,0.1-0.3,0.1c-0.1,0-0.2,0.1-0.2,0.2c-0.1,0.1-0.1,0.1-0.1,0.2
			c0,0.2,0.1,0.3,0.2,0.4c0.1,0.1,0.4,0.2,0.7,0.3l0.5,0.1c0.2,0.1,0.5,0.1,0.7,0.2c0.2,0.1,0.4,0.2,0.6,0.3
			c0.2,0.1,0.3,0.3,0.4,0.4c0.1,0.2,0.1,0.4,0.1,0.6c0,0.2-0.1,0.5-0.2,0.6c-0.1,0.2-0.3,0.3-0.5,0.5c-0.2,0.1-0.4,0.2-0.7,0.3
			c-0.3,0.1-0.6,0.1-0.9,0.1c-0.2,0-0.4,0-0.6,0c-0.2,0-0.4-0.1-0.6-0.1c-0.2,0-0.4-0.1-0.5-0.1c-0.2-0.1-0.3-0.1-0.4-0.2L376,277.6
			z"/>
		<path d="M386.2,278.8h-1.1l-0.5-1.2h-2.4l-0.5,1.2h-1.1l2.2-5h1.3L386.2,278.8z M382.5,276.8h1.7l-0.9-2.1L382.5,276.8z"/>
		<path d="M389.9,273.8h1.2l-2.1,3.1v1.9h-1v-1.9l-2.1-3.1h1.2l1.4,2.2L389.9,273.8z"/>
		<path d="M392,273.8h3.7v0.8H393v1.2h2.4v0.8H393v1.3h2.7v0.8H392V273.8z"/>
		<path d="M399,276.8h-1v2h-1v-5h2.2c0.4,0,0.7,0,1,0.1c0.3,0.1,0.5,0.2,0.7,0.3c0.2,0.1,0.3,0.3,0.4,0.5c0.1,0.2,0.1,0.4,0.1,0.6
			c0,0.1,0,0.3-0.1,0.4c0,0.1-0.1,0.3-0.2,0.4c-0.1,0.1-0.2,0.2-0.4,0.3c-0.2,0.1-0.3,0.2-0.6,0.2l1.5,2.1h-1.2L399,276.8z
			 M398,274.6v1.4h0.9c0.2,0,0.4,0,0.5,0c0.2,0,0.3-0.1,0.4-0.1c0.1-0.1,0.2-0.1,0.3-0.2c0.1-0.1,0.1-0.2,0.1-0.4
			c0-0.3-0.1-0.4-0.3-0.5c-0.2-0.1-0.5-0.2-1-0.2H398z"/>
	</g>
</g>
</svg>
