<?xml version="1.0" encoding="utf-8"?>
<!-- Generator: Adobe Illustrator 24.2.1, SVG Export Plug-In . SVG Version: 6.00 Build 0)  -->
<svg version="1.1" id="Layer_1" xmlns="http://www.w3.org/2000/svg" xmlns:xlink="http://www.w3.org/1999/xlink" x="0px" y="0px"
	 viewBox="0 0 800 323.5" style="enable-background:new 0 0 800 323.5;" xml:space="preserve">
<style type="text/css">
	.st0{fill:#50DAFF;}
	.st1{fill:#2B2B2B;}
	.st2{fill:#2CBEBC;}
	.st3{fill:#067789;}
	.st4{fill:#333333;}
	.st5{fill:#444444;}
	.st6{fill:#565656;}
	.st7{fill:#FFFFFF;}
	.st8{fill:#963D00;}
	.st9{fill:#9B9B9B;}
	.st10{fill:#303030;}
	.st11{fill:#CECECE;}
	.st12{fill:#F2D0B8;}
	.st13{fill:#394A63;}
	.st14{fill:#FFDEC5;}
	.st15{fill:#753A13;}
	.st16{fill:#3F3F3F;}
	.st17{fill:#423D39;}
	.st18{fill:#637EA8;}
	.st19{fill:#332F2D;}
	.st20{fill:#635D5A;}
	.st21{fill:#FFB769;}
	.st22{fill:#4A6182;}
	.st23{fill:#2CBFBD;}
	.st24{fill:#78828F;}
</style>
<g>
	<g>
		<g>
			<path class="st0" d="M799.9,254.2c0,4.5-0.8,8.1-1.9,8.1s-1.9-3.7-1.9-8.1c0-4.5,0.8-8.1,1.9-8.1
				C799.1,246,799.9,249.7,799.9,254.2z"/>
			<rect x="376.1" y="273.9" class="st1" width="418.4" height="17"/>
			<polygon class="st2" points="794.5,282.1 592.5,282.1 592.5,122.2 666.6,122.2 704.7,208.3 794.5,220.4 			"/>
			<polygon class="st3" points="693,275.1 599.6,275.1 599.6,128.6 661.2,128.6 693,207.6 			"/>
			<path class="st4" d="M693.7,275.9H599v-148h62.8l0.2,0.4l31.7,79.1V275.9z M600.4,274.4h91.8v-66.7l-31.4-78.3h-60.4L600.4,274.4
				L600.4,274.4z"/>
			<polygon class="st5" points="602.7,204.3 602.1,131.2 658.9,131.2 688.3,204.1 			"/>
			<path class="st6" d="M798,262.4c0,1.7-1.4,3-3,3l0,0c-1.8,0-3.1-1.4-3.1-3v-16.2c0-1.7,1.4-3,3.1-3l0,0c1.7,0,3,1.4,3,3V262.4z"
				/>
			<path class="st1" d="M616.8,216.8v-1.7c0-1.9-1.6-3.4-3.4-3.4h-7.6c-1.9,0-3.4,1.6-3.4,3.4v1.7H616.8z"/>
			<path class="st7" d="M616.8,216.8v1.7c0,1.9-1.6,3.4-3.4,3.4h-7.6c-1.9,0-3.4-1.6-3.4-3.4v-1.7H616.8z"/>
			<polygon class="st2" points="595.2,282.1 376.1,282.1 376.1,78.2 575,78.2 595.2,122.2 			"/>
			<path class="st7" d="M560.1,192.2c0,1.9-1.6,3.4-3.4,3.4H402.5c-1.9,0-3.4-1.6-3.4-3.4v-57.4c0-1.9,1.6-3.4,3.4-3.4h154.1
				c1.9,0,3.4,1.6,3.4,3.4L560.1,192.2L560.1,192.2z"/>
			<rect x="376.1" y="230.8" class="st8" width="418.4" height="9.7"/>
			<g>
				<path class="st1" d="M780.1,289.5c-1.4-19-17.1-33.9-36.4-33.9c-19.3,0-35.1,14.9-36.4,33.9H780.1z"/>
				<g>
					<g>
						<path class="st6" d="M774.1,291.5c0,16.8-13.6,30.5-30.4,30.5s-30.5-13.7-30.5-30.5s13.7-30.5,30.5-30.5
							C760.4,261,774.1,274.7,774.1,291.5z"/>
						<path class="st9" d="M743.6,323.5c-17.6,0-32-14.3-32-32c0-17.6,14.3-32,32-32c17.6,0,32,14.3,32,32S761.3,323.5,743.6,323.5z
							 M743.6,262.6c-16,0-28.9,12.9-28.9,28.9s12.9,28.9,28.9,28.9s28.9-12.9,28.9-28.9S759.6,262.6,743.6,262.6z"/>
					</g>
					<path class="st10" d="M762.5,292.7c0,10.4-8.5,18.9-18.9,18.9s-18.9-8.5-18.9-18.9s8.5-18.9,18.9-18.9
						C754.1,273.9,762.5,282.3,762.5,292.7z"/>
					<path class="st11" d="M758.4,292.7c0,8.1-6.6,14.8-14.8,14.8c-8.1,0-14.8-6.6-14.8-14.8c0-8.1,6.6-14.8,14.8-14.8
						C751.9,277.9,758.4,284.5,758.4,292.7z"/>
					<g>
						<polygon class="st10" points="742.9,283.8 742.2,282.4 742.9,281.1 744.5,281.1 745.2,282.4 744.5,283.8 						"/>
						<path class="st11" d="M744.1,282.4c0,0.3-0.2,0.5-0.5,0.5s-0.5-0.2-0.5-0.5s0.2-0.5,0.5-0.5S744.1,282.1,744.1,282.4z"/>
					</g>
					<g>
						<polygon class="st10" points="736.7,286.9 735.3,286.5 734.8,285 736,283.9 737.5,284.3 737.9,285.8 						"/>
						<path class="st11" d="M736.7,285c0.2,0.2,0.2,0.5,0,0.7s-0.5,0.2-0.7,0s-0.2-0.5,0-0.7S736.5,284.8,736.7,285z"/>
					</g>
					<g>
						<polygon class="st10" points="734.7,293.5 733.4,294.2 732,293.5 732,291.9 733.4,291.2 734.7,291.9 						"/>
						<path class="st11" d="M733.4,292.3c0.3,0,0.5,0.2,0.5,0.5s-0.2,0.5-0.5,0.5s-0.5-0.2-0.5-0.5S733.1,292.3,733.4,292.3z"/>
					</g>
					<g>
						<polygon class="st10" points="737.9,299.6 737.5,301.1 736,301.5 734.8,300.4 735.3,298.9 736.7,298.5 						"/>
						<path class="st11" d="M736,299.7c0.2-0.2,0.5-0.2,0.7,0s0.2,0.5,0,0.7s-0.5,0.2-0.7,0S735.8,299.9,736,299.7z"/>
					</g>
					<g>
						<polygon class="st10" points="744.5,301.6 745.2,303 744.5,304.4 742.9,304.4 742.1,303 742.9,301.6 						"/>
						<path class="st11" d="M743.1,303c0-0.3,0.2-0.5,0.5-0.5s0.5,0.2,0.5,0.5s-0.2,0.5-0.5,0.5C743.4,303.5,743.1,303.3,743.1,303z
							"/>
					</g>
					<g>
						<polygon class="st10" points="750.5,298.5 752.1,298.9 752.5,300.4 751.3,301.5 749.9,301.1 749.5,299.6 						"/>
						<path class="st11" d="M750.6,300.4c-0.2-0.2-0.2-0.5,0-0.7s0.5-0.2,0.7,0s0.2,0.5,0,0.7C751,300.6,750.8,300.6,750.6,300.4z"
							/>
					</g>
					<g>
						<polygon class="st10" points="752.6,291.9 754,291.2 755.3,291.9 755.3,293.5 754,294.2 752.6,293.5 						"/>
						<path class="st11" d="M754,293.2c-0.2,0-0.5-0.2-0.5-0.5s0.2-0.5,0.5-0.5s0.5,0.2,0.5,0.5S754.3,293.2,754,293.2z"/>
					</g>
					<g>
						<polygon class="st10" points="749.5,285.9 749.9,284.3 751.3,283.9 752.5,285 752.1,286.5 750.5,286.9 						"/>
						<path class="st11" d="M751.3,285.8c-0.2,0.2-0.5,0.2-0.7,0s-0.2-0.5,0-0.7s0.5-0.2,0.7,0C751.4,285.3,751.4,285.6,751.3,285.8
							z"/>
					</g>
				</g>
			</g>
			<g>
				<path class="st1" d="M499.2,289.5c-1.4-19-17.1-33.9-36.4-33.9s-35.1,14.9-36.4,33.9H499.2z"/>
				<g>
					<g>
						<path class="st6" d="M493.1,291.5c0,16.8-13.6,30.5-30.4,30.5s-30.5-13.7-30.5-30.5s13.6-30.5,30.5-30.5
							S493.1,274.7,493.1,291.5z"/>
						<path class="st9" d="M462.7,323.5c-17.6,0-32-14.3-32-32c0-17.6,14.3-32,32-32c17.6,0,32,14.3,32,32S480.3,323.5,462.7,323.5z
							 M462.7,262.6c-16,0-28.9,12.9-28.9,28.9s12.9,28.9,28.9,28.9s28.9-12.9,28.9-28.9C491.7,275.5,478.6,262.6,462.7,262.6z"/>
					</g>
					<path class="st10" d="M481.5,292.7c0,10.4-8.5,18.9-18.9,18.9s-18.9-8.5-18.9-18.9s8.5-18.9,18.9-18.9
						C473.1,273.9,481.5,282.3,481.5,292.7z"/>
					<path class="st11" d="M477.5,292.7c0,8.1-6.6,14.8-14.8,14.8c-8.1,0-14.8-6.6-14.8-14.8c0-8.1,6.7-14.8,14.8-14.8
						C470.9,277.9,477.5,284.5,477.5,292.7z"/>
					<g>
						<polygon class="st10" points="461.9,283.8 461.2,282.4 461.9,281.1 463.5,281.1 464.3,282.4 463.5,283.8 						"/>
						<path class="st11" d="M463.3,282.4c0,0.3-0.2,0.5-0.5,0.5s-0.5-0.2-0.5-0.5s0.2-0.5,0.5-0.5
							C463,281.9,463.3,282.1,463.3,282.4z"/>
					</g>
					<g>
						<polygon class="st10" points="455.9,286.9 454.3,286.5 453.9,285 455,283.9 456.5,284.3 456.9,285.8 						"/>
						<path class="st11" d="M455.7,285c0.2,0.2,0.2,0.5,0,0.7s-0.5,0.2-0.7,0s-0.2-0.5,0-0.7S455.5,284.8,455.7,285z"/>
					</g>
					<g>
						<polygon class="st10" points="453.8,293.5 452.4,294.2 451.1,293.5 451.1,291.9 452.4,291.2 453.8,291.9 						"/>
						<path class="st11" d="M452.4,292.3c0.3,0,0.5,0.2,0.5,0.5s-0.2,0.5-0.5,0.5s-0.5-0.2-0.5-0.5S452.1,292.3,452.4,292.3z"/>
					</g>
					<g>
						<polygon class="st10" points="456.9,299.6 456.5,301.1 455,301.5 453.9,300.4 454.3,298.9 455.9,298.5 						"/>
						<path class="st11" d="M455,299.7c0.2-0.2,0.5-0.2,0.7,0s0.2,0.5,0,0.7s-0.5,0.2-0.7,0C454.9,300.2,454.9,299.9,455,299.7z"/>
					</g>
					<g>
						<polygon class="st10" points="463.5,301.6 464.2,303 463.5,304.4 461.9,304.4 461.2,303 461.9,301.6 						"/>
						<path class="st11" d="M462.2,303c0-0.3,0.2-0.5,0.5-0.5s0.5,0.2,0.5,0.5s-0.2,0.5-0.5,0.5C462.4,303.5,462.2,303.3,462.2,303z
							"/>
					</g>
					<g>
						<polygon class="st10" points="469.6,298.5 471.1,298.9 471.5,300.4 470.4,301.5 468.9,301.1 468.5,299.6 						"/>
						<path class="st11" d="M469.6,300.4c-0.2-0.2-0.2-0.5,0-0.7s0.5-0.2,0.7,0s0.2,0.5,0,0.7S469.8,300.6,469.6,300.4z"/>
					</g>
					<g>
						<polygon class="st10" points="471.7,291.9 473,291.2 474.3,291.9 474.3,293.5 473,294.2 471.7,293.5 						"/>
						<path class="st11" d="M473,293.2c-0.3,0-0.5-0.2-0.5-0.5s0.2-0.5,0.5-0.5s0.5,0.2,0.5,0.5S473.3,293.2,473,293.2z"/>
					</g>
					<g>
						<polygon class="st10" points="468.5,285.9 468.9,284.3 470.4,283.9 471.5,285 471.1,286.5 469.6,286.9 						"/>
						<path class="st11" d="M470.4,285.8c-0.2,0.2-0.5,0.2-0.7,0s-0.2-0.5,0-0.7s0.5-0.2,0.7,0S470.6,285.6,470.4,285.8z"/>
					</g>
				</g>
			</g>
			<path class="st1" d="M376,139.1c0,1.1-0.8,2-2,2l0,0c-1.1,0-2-0.9-2-2v-15.6c0-1.1,0.8-2,2-2l0,0c1,0,2,0.9,2,2V139.1z"/>
			<path class="st1" d="M376,233.1c0,1.1-0.8,2-2,2l0,0c-1.1,0-2-0.8-2-2v-15.6c0-1.1,0.8-2,2-2l0,0c1,0,2,0.8,2,2V233.1z"/>
			<rect x="370" y="272.5" class="st6" width="37.9" height="23.9"/>
			<rect x="781" y="272.5" class="st6" width="19" height="23.9"/>
		</g>
		<g>
			<rect x="54.8" y="61" class="st12" width="14" height="14.4"/>
			<polygon class="st13" points="51,309.3 28.9,309.3 28.9,172.9 62.9,172.9 			"/>
			<polygon class="st13" points="94.8,309.3 72.8,309.3 59.2,172.9 94.8,172.9 			"/>
			<path class="st14" d="M85.8,37.1c0,16.5-10.8,30-24,30s-24-13.4-24-30c0-16.5,10.8-30,24-30S85.8,20.6,85.8,37.1z"/>
			<path class="st15" d="M37.9,34c11.5-0.2,15.3-14.5,8.8-20.4C39.8,15.7,36.2,21.7,37.9,34z"/>
			<path class="st15" d="M85.8,33.3C74.3,33,70.5,18.8,77,12.8C83.9,14.9,87.5,20.9,85.8,33.3z"/>
			<path class="st16" d="M53,36.2c0,0.9-0.8,1.8-1.8,1.8s-1.8-0.8-1.8-1.8s0.8-1.8,1.8-1.8C52.2,34.5,53,35.3,53,36.2z"/>
			<path class="st16" d="M74.7,36.2c0,0.9-0.8,1.8-1.8,1.8s-1.8-0.8-1.8-1.8s0.8-1.8,1.8-1.8C73.9,34.5,74.7,35.3,74.7,36.2z"/>
			<rect x="69.5" y="31.1" class="st16" width="6.8" height="1.1"/>
			<rect x="47.8" y="31.1" class="st16" width="6.7" height="1.1"/>
			<path class="st14" d="M39.7,36.8c0,1.7-1.4,2.9-2.9,2.9c-1.7,0-2.9-1.4-2.9-2.9s1.4-2.9,2.9-2.9C38.3,33.8,39.7,35.2,39.7,36.8z"
				/>
			<path class="st14" d="M89.6,36.2c0,1.7-1.4,2.9-2.9,2.9c-1.7,0-2.9-1.4-2.9-2.9c0-1.7,1.4-2.9,2.9-2.9S89.6,34.7,89.6,36.2z"/>
			<path class="st12" d="M88.4,36.2c0,0.9-0.8,1.8-1.8,1.8s-1.8-0.8-1.8-1.8s0.8-1.8,1.8-1.8S88.4,35.3,88.4,36.2z"/>
			<path class="st12" d="M38.5,36.8c0,1-0.8,1.8-1.8,1.8s-1.8-0.8-1.8-1.8c0-0.9,0.8-1.8,1.8-1.8S38.5,35.7,38.5,36.8z"/>
			<polygon class="st17" points="62.2,48.8 57.5,48.8 61.5,35.3 62.2,35.5 58.5,48 62.2,48 			"/>
			<rect x="24.8" y="74.4" class="st18" width="70.1" height="108.3"/>
			<polygon class="st19" points="0.2,323.5 16.4,323.5 35.2,321.7 35.2,323.5 49.4,323.5 49.4,309.3 31.3,309.4 0.2,318.3 			"/>
			<polygon class="st20" points="0.2,320.5 0.2,323.5 16.4,323.5 35.2,321.7 35.2,323.5 49.4,323.5 49.4,320.5 			"/>
			<polygon class="st19" points="123.5,323.5 107.3,323.5 88.4,321.7 88.4,323.5 74.2,323.5 74.2,309.3 92.3,309.4 123.5,318.3 			
				"/>
			<polygon class="st20" points="123.5,320.5 123.5,323.5 107.3,323.5 88.4,321.7 88.4,323.5 74.2,323.5 74.2,320.5 			"/>
			<path class="st17" d="M61.2,58.3c-4.7,0-7.7-1.4-7.9-1.5l0.3-0.6c0.1,0,6.9,3,15.6,0l0.2,0.7C66.4,57.8,63.6,58.3,61.2,58.3z"/>
			<rect x="27.6" y="114.1" class="st21" width="64.5" height="64.5"/>
			<rect x="35.1" y="121.6" class="st2" width="49.6" height="49.6"/>
			<rect x="40.6" y="127.2" class="st21" width="38.5" height="38.5"/>
			<path class="st14" d="M95.3,188l5-7.7l-8-5l-4.9,7.6c-1.5,2.2-0.8,5.1,1.5,6.6C90.9,190.9,93.9,190.2,95.3,188z"/>
			<path class="st18" d="M102.8,77.1c-3.1-3.3-8.5-3.6-11.8-0.4c-2.7,2.5-3.3,6.4-1.9,9.5c0,0,0.8,1.4,1,1.8c6,9,30.9,51.6,0.2,89.6
				c3.8,3.2,4.2,3.7,8.4,6c47.6-53.1,4.4-106.1,4.4-106.1l0,0C103,77.3,102.9,77.2,102.8,77.1z"/>
			<path class="st14" d="M34.1,183.5l-5.3-7.4l-7.6,5.6l5.3,7.3c1.6,2.1,4.5,2.6,6.7,1C35.2,188.6,35.7,185.5,34.1,183.5z"/>
			<path class="st18" d="M18.4,77.1c3.1-3.3,8.5-3.6,11.8-0.4c2.7,2.5,3.3,6.4,1.9,9.5c0,0-0.8,1.4-1.1,1.8c-6,9-30.9,51.6-0.2,89.6
				c-3.8,3.2-4.2,3.6-8.4,6c-47.6-53.3-4.3-106.1-4.3-106.1l0,0C18.2,77.3,18.3,77.2,18.4,77.1z"/>
			<path class="st18" d="M61.8,0C47.5,0,35.9,11.5,35.9,25.8h51.8C87.7,11.5,76.1,0,61.8,0z"/>
			<path class="st22" d="M61.8,33.9c-14.3,0-25.9-3.7-25.9-8.1h51.8C87.7,30.3,76.1,33.9,61.8,33.9z"/>
		</g>
		<g>
			<g>
				<rect x="139.3" y="235.6" class="st21" width="87.9" height="88"/>
				<rect x="149.5" y="245.7" class="st2" width="67.6" height="67.6"/>
				<rect x="157" y="253.3" class="st21" width="52.5" height="52.4"/>
			</g>
			<g>
				<rect x="232.7" y="235.6" class="st21" width="88" height="87.9"/>
				<rect x="243" y="245.7" class="st2" width="67.6" height="67.6"/>
				<rect x="250.5" y="253.2" class="st21" width="52.5" height="52.5"/>
			</g>
			<g>
				<rect x="186.3" y="146.1" class="st21" width="88" height="88"/>
				<rect x="196.4" y="156.2" class="st2" width="67.6" height="67.6"/>
				<rect x="204" y="163.8" class="st21" width="52.5" height="52.4"/>
			</g>
		</g>
	</g>
	<g>
		<ellipse class="st23" cx="498.8" cy="164.2" rx="2.2" ry="2.2"/>
		<ellipse class="st23" cx="493.8" cy="169.5" rx="2.2" ry="2.2"/>
		<path class="st23" d="M512.6,157.4c4.6,0,8.3-3.9,8.3-8.6c0-0.9-0.1-1.8-0.4-2.6l6-1.6l-0.6-2.5l-6.6,1.7c-1.5-2.2-4-3.7-6.8-3.7
			c-4.6,0-8.3,3.9-8.3,8.6C504.3,153.6,508,157.4,512.6,157.4z M518.4,148.8c0,3.3-2.6,6.1-5.8,6.1c-2.9,0-5.3-2.2-5.8-5.1l11.3-2.9
			C518.3,147.5,518.4,148.1,518.4,148.8z M512.6,142.7c1.6,0,3.1,0.7,4.2,1.8l-9.8,2.5C507.7,144.6,509.9,142.7,512.6,142.7z"/>
		<path class="st23" d="M542.3,163.2l-11.6-12.8l-2.1,2.1l9.7,10.6l-2.9,2.9l-9.8-10.2l-2,2.1l9.8,10.2l-3,3l-10-10.9l-2.1,2.1
			l3.7,4c-4,0.4-7.9-0.9-10.9-3.8l-7.4-7.7l-2,2.1l7.4,7.7l0,0c3.2,3,7.3,4.6,11.5,4.6c1.3,0,2.5-0.1,3.8-0.4l6,6.4L542.3,163.2z"/>
		<path class="st23" d="M485.5,169.4l16.3-16.3l-1.1-1.1c-5.9-5.6-14.9-6.2-21.3-1.4l-2.6,1.9l1.7,2.4l2.6-1.9
			c5-3.7,11.7-3.5,16.5,0.1l-14,14l-5.9-6.3l-2.1,2.1l14.8,15.9l0,0c0.9,0.9,0.9,2.4,0,3.4l-4.8,5l2,2.1l4.8-5c2-2.1,2-5.5,0-7.6
			L485.5,169.4z"/>
	</g>
	<g>
		<path class="st24" d="M417.9,158.5c-0.4,0-0.7,0.1-0.9,0.3c-0.2,0.2-0.4,0.5-0.4,0.9c0,0.4,0.1,0.7,0.4,0.9
			c0.3,0.2,0.6,0.3,0.9,0.3c0.4,0,0.7-0.1,0.9-0.3c0.3-0.2,0.4-0.5,0.4-0.9c0-0.4-0.1-0.7-0.4-0.9
			C418.6,158.6,418.3,158.5,417.9,158.5z"/>
		<path class="st24" d="M421.5,158.5c-0.4,0-0.7,0.1-0.9,0.3c-0.2,0.2-0.4,0.5-0.4,0.9c0,0.4,0.1,0.7,0.4,0.9
			c0.3,0.2,0.6,0.3,0.9,0.3c0.4,0,0.7-0.1,0.9-0.3c0.3-0.2,0.4-0.5,0.4-0.9c0-0.4-0.1-0.7-0.4-0.9
			C422.2,158.6,421.9,158.5,421.5,158.5z"/>
		<path class="st24" d="M421.9,147.6h-2.3v7.3h-3.2h-0.3h-1.5v-7.3h-2.3v9.4c0,0.6-0.1,1-0.3,1.3c-0.2,0.3-0.5,0.4-1,0.4
			c-0.2,0-0.3,0-0.5,0c-0.2,0-0.4-0.1-0.6-0.1l0.2,2.4c0.1,0,0.3,0.1,0.5,0.1c0.2,0,0.4,0,0.6,0c1.1,0,1.9-0.3,2.4-0.9
			c0.5-0.6,0.8-1.6,0.9-2.9h1.5h0.3h5.5V147.6z"/>
		<path class="st24" d="M466.3,146.4v6.5c0,0.7-0.2,1.2-0.5,1.6c-0.3,0.4-0.8,0.6-1.5,0.6c-0.6,0-1.1-0.2-1.5-0.6
			c-0.4-0.4-0.6-1-0.6-1.8v-4.3h-2.3v4.3c0,0.4-0.1,0.8-0.2,1.1c-0.1,0.3-0.3,0.5-0.5,0.7c-0.2,0.2-0.5,0.3-0.7,0.3
			c-0.3,0.1-0.5,0.1-0.8,0.1H456v-6.4h-2.3v6.4h-3.3H450h-2.6h-0.3h-2.6h-0.3h-2.6h-0.3h-2.6h-0.3h-2.6h-0.3h-2.6h-0.3h-2.6h-0.3
			h-1.8v-11.6h-2.3v14h4.1h0.3h2.6h0.3h2.6h0.3h2.6h0.3h2.6h0.3h2.6h0.3h2.6h0.3h2.6h0.3h7.3c0.6,0,1.2-0.1,1.8-0.4
			c0.6-0.3,1.1-0.6,1.5-1.1c0.2,0.3,0.4,0.6,0.7,0.8c0.2,0.2,0.5,0.4,0.8,0.5c0.3,0.1,0.6,0.2,0.9,0.3c0.3,0.1,0.6,0.1,0.9,0.1
			c1.5,0,2.5-0.4,3.2-1.2c0.7-0.8,1.1-2,1.1-3.7v-6.2H466.3z"/>
	</g>
	<g>
		<g>
			<path class="st24" d="M411.1,175.9c0.2,0.2,0.5,0.3,0.8,0.4c0.3,0.1,0.6,0.2,1,0.3c0.3,0.1,0.7,0.2,1.1,0.2
				c0.4,0.1,0.7,0.1,1.1,0.1c0.4,0,0.8,0,1.1-0.1c0.3-0.1,0.7-0.2,0.9-0.3c0.3-0.1,0.5-0.3,0.6-0.6c0.1-0.2,0.2-0.5,0.2-0.8
				c0-0.3-0.1-0.5-0.2-0.7c-0.1-0.2-0.3-0.4-0.5-0.5c-0.2-0.1-0.5-0.3-0.8-0.4c-0.3-0.1-0.7-0.2-1.1-0.3l-1.1-0.3
				c-1.2-0.3-2.2-0.8-2.8-1.5c-0.6-0.7-0.9-1.6-0.9-2.6c0-0.6,0.1-1.1,0.3-1.6c0.2-0.5,0.6-0.9,1-1.2c0.4-0.3,0.9-0.6,1.5-0.8
				c0.6-0.2,1.3-0.3,2-0.3c0.4,0,0.9,0,1.3,0.1c0.4,0.1,0.9,0.2,1.3,0.3c0.4,0.1,0.8,0.2,1.2,0.4c0.4,0.1,0.7,0.3,1,0.5l-0.9,2.2
				c-0.5-0.3-1.1-0.6-1.8-0.8c-0.7-0.2-1.4-0.3-2-0.3c-0.3,0-0.6,0-0.9,0.1c-0.3,0.1-0.5,0.2-0.8,0.3c-0.2,0.1-0.4,0.3-0.5,0.5
				c-0.1,0.2-0.2,0.4-0.2,0.7c0,0.5,0.2,0.8,0.5,1.1c0.3,0.3,0.9,0.5,1.6,0.7l1.1,0.3c0.6,0.1,1.1,0.3,1.6,0.6
				c0.5,0.2,0.9,0.5,1.3,0.9c0.4,0.3,0.7,0.8,0.9,1.2c0.2,0.5,0.3,1,0.3,1.6c0,0.7-0.1,1.3-0.4,1.8c-0.3,0.5-0.6,1-1.1,1.3
				c-0.5,0.4-1,0.6-1.7,0.8c-0.7,0.2-1.4,0.3-2.1,0.3c-0.5,0-0.9,0-1.4-0.1c-0.5-0.1-0.9-0.1-1.4-0.3c-0.4-0.1-0.8-0.2-1.2-0.4
				c-0.4-0.1-0.7-0.3-1-0.5L411.1,175.9z"/>
			<path class="st24" d="M434.6,179.2H432l-1.1-3.3h-5.6l-1.1,3.3h-2.5l5-14h2.9L434.6,179.2z M426.1,173.5h4l-2-5.8L426.1,173.5z"
				/>
			<path class="st24" d="M443.2,165.2h2.8l-4.8,8.7v5.2h-2.4v-5.2l-4.8-8.7h2.8l3.2,6.3L443.2,165.2z"/>
			<path class="st24" d="M448,165.2h8.6v2.3h-6.2v3.3h5.6v2.3h-5.6v3.7h6.3v2.3H448V165.2z"/>
			<path class="st24" d="M464.3,173.6h-2.4v5.5h-2.4v-14h5.1c0.9,0,1.6,0.1,2.2,0.4c0.6,0.2,1.1,0.6,1.5,0.9
				c0.4,0.4,0.7,0.8,0.9,1.4c0.2,0.5,0.3,1,0.3,1.6c0,0.4,0,0.8-0.1,1.2c-0.1,0.4-0.3,0.8-0.5,1.1c-0.2,0.3-0.5,0.7-0.8,0.9
				c-0.3,0.3-0.8,0.5-1.3,0.7l3.5,5.9h-2.7L464.3,173.6z M461.9,167.5v4h2.1c0.4,0,0.8,0,1.2-0.1c0.4-0.1,0.7-0.2,0.9-0.3
				c0.3-0.2,0.5-0.4,0.6-0.6c0.1-0.3,0.2-0.6,0.2-1c0-0.7-0.2-1.2-0.7-1.5c-0.5-0.3-1.2-0.5-2.2-0.5H461.9z"/>
		</g>
	</g>
</g>
</svg>
