<?xml version="1.0" encoding="utf-8"?>
<!-- Generator: Adobe Illustrator 21.0.0, SVG Export Plug-In . SVG Version: 6.00 Build 0)  -->
<svg version="1.1" id="Layer_1" xmlns="http://www.w3.org/2000/svg" xmlns:xlink="http://www.w3.org/1999/xlink" x="0px" y="0px"
	 viewBox="0 0 409.4 500" style="enable-background:new 0 0 409.4 500;" xml:space="preserve">
<style type="text/css">
	.st0{fill:#2cbebc;}
</style>
<path class="st0" d="M70.8,464.6c0,19.6-15.8,35.4-35.4,35.4S0,484.2,0,464.6s15.8-35.4,35.4-35.4C55,429.1,70.8,445,70.8,464.6
	L70.8,464.6z M146,429.1c-19.6,0-35.4,15.8-35.4,35.4s15.8,35.4,35.4,35.4s35.4-15.8,35.4-35.4C181.3,445,165.5,429.1,146,429.1
	h-0.1H146z M256.4,429.1c-19.6,0-35.4,15.8-35.4,35.4s15.8,35.4,35.4,35.4s35.4-15.8,35.4-35.4C291.9,445,276,429.1,256.4,429.1
	h-0.1H256.4z M367,429.1c-19.6,0-35.4,15.8-35.4,35.4s15.8,35.4,35.4,35.4s35.4-15.8,35.4-35.4C402.3,445,386.6,429.1,367,429.1
	h-0.1H367z M309.9,358.2H91.6c-20.9,0-37.9-17-37.9-37.9l0.8-137.6c0-17.5,11.9-32.8,29-36.9v-26.5l0,0v-2.2
	c-0.1-31.6,12.8-61.9,35.5-83.8C141,11.9,170.5,0,201,0h2.6c62.5,1.8,113.7,55.4,113.7,119.5v26c17.9,3.4,30.9,19.1,30.9,37.2
	l-0.8,137.6C347.5,341.1,330.7,358.1,309.9,358.2z M236.4,249c0-19.6-15.9-35.4-35.5-35.4s-35.4,15.9-35.4,35.5s15.9,35.4,35.4,35.4
	C220.6,284.3,236.4,268.5,236.4,249L236.4,249z M251.6,118.7c0.4-26.4-19.1-49-45.3-52.3c-2-0.3-4-0.4-6-0.4
	c-12.5,0-24.5,4.6-33.8,13.1c-10.8,9.7-17,23.5-17,38v27.9h102.2v-26.2H251.6z"/>
</svg>
