<?xml version="1.0" encoding="utf-8"?>
<!-- Generator: Adobe Illustrator 21.0.0, SVG Export Plug-In . SVG Version: 6.00 Build 0)  -->
<svg version="1.1" id="Layer_1" xmlns="http://www.w3.org/2000/svg" xmlns:xlink="http://www.w3.org/1999/xlink" x="0px" y="0px"
	 viewBox="0 0 500 381.8" style="enable-background:new 0 0 500 381.8;" xml:space="preserve">
<style type="text/css">
	.st0{fill:#2cbebc;}
</style>
<path class="st0" d="M154.5,381.8c55.8,0.1,109.6-20.6,150.8-58.2c5.2-4.9,5.4-13.1,0.6-18.4c-0.9-0.9-1.9-1.8-3-2.4
	c-23.1-12.8-47.9-22.2-73.8-27.9c-0.4-0.1-0.9-0.6-0.7-1v-15.1c9-11.6,15.5-24.8,19.6-38.8c10.2-10.2,14.6-25.8,17-34.3
	c3.9-13.9,7.9-33.9-3-48.2l-0.4-0.6c5.1-25.2,11.6-84.5-33.4-114.7c5.2-5.4,8.2-12.7,7.9-20.2c0-0.7-0.4-1.3-0.9-1.9
	c-0.6-0.4-1.3-0.6-2.1-0.6c-0.6,0-57,6.4-84.2,0.7c-27.2-5.7-58.5,15.4-65,37.2c-10.6,1.3-20.2,6.9-26.7,15.1
	C44.7,67.5,41,91.8,45.9,124.2c0.3,4.2,0.9,8.2,1.5,12.5l-0.4,0.6c-10.8,14-6.9,34.2-2.8,47.9c2.4,8.5,6.9,24.3,17,34.3
	c4,14.2,10.8,27.5,19.7,39.1v15.1c0,0.4-0.3,0.9-0.7,1c-25.8,5.7-50.6,15.1-73.6,27.8c-6.3,3.6-8.4,11.5-4.8,17.8
	c0.6,1,1.5,2.1,2.4,3C44.9,361,98.7,381.8,154.5,381.8z M154.5,329.4c-23.9,0.3-46.4-11-60.6-30.3c6.1-3.4,10.9-9,13.3-15.7
	c6.3,4.2,13.1,7.6,20.2,10.2c17.6,6.3,36.9,6.3,54.5,0c7.2-2.5,13.9-6,20.2-10.2c2.2,6.7,7,12.4,13.3,16
	C201.1,318.6,178.4,329.8,154.5,329.4z M68.3,178.6c-5.1-17.6-2.8-23.9-1.2-26.1c1.2-1.5,3.1-2.2,5.1-2.1h0.9c1.5,0.1,2.7-1,2.8-2.5
	c0-0.4,3.1-38.2,25.5-51.8c11.2-6.9,25.5-6.6,42.7,0.7c35.4,15.1,61.2,14,77.2,10.5c18.2,13.4,13,34.8,11.6,39v0.4
	c-0.3,0.9-0.1,1.8,0.4,2.5c0.6,0.7,1.5,1,2.4,1c2.2-0.4,4.5,0.3,6,2.1c1.6,2.2,3.7,8.5-1.2,26.1c-6.4,22.5-11.5,24.6-13,24.8
	c-1.2,0.1-2.2,1-2.4,2.2c-3.7,24-22.7,53.8-52.1,64.4c-12.1,4.3-25.4,4.3-37.6,0c-30.3-10.8-48.2-40.9-52-64.4
	c-0.1-1.2-1.2-2.2-2.4-2.2C79.8,203.2,74.6,201,68.3,178.6z M317.2,245.9h85.3c53.8,0.1,97.5-43.4,97.5-97.2
	c0.1-53.8-43.4-97.5-97.2-97.5s-97.5,43.4-97.5,97.2l0,0v85.3C305.3,240.4,310.5,245.8,317.2,245.9L317.2,245.9z M366.2,134.8h22.7
	v-22.7c0-7.6,6.1-13.7,13.7-13.7c7.6,0,13.7,6.1,13.7,13.7v22.7h22.7c7.6,0,13.7,6.1,13.7,13.7l0,0l0,0c0,7.6-6.1,13.7-13.7,13.7
	l0,0h-22.5v22.5c0,7.6-6.1,13.7-13.7,13.7c-7.6,0-13.7-6.1-13.7-13.7v-22.7h-22.7c-7.6,0-13.7-6.1-13.7-13.7
	c0-7.6,6.1-13.7,13.7-13.7L366.2,134.8z"/>
</svg>
